<mxfile host="app.diagrams.net" modified="2022-07-19T07:26:41.581Z" agent="5.0 (Windows NT 10.0; Win64; x64) AppleWebKit/537.36 (KHTML, like Gecko) Chrome/103.0.0.0 Safari/537.36" etag="JecKq_r24HP4wFxUMjBj" version="20.1.1" type="github">
  <diagram id="gWmzOFrrxlh0569rpPtf" name="Page-1">
    <mxGraphModel dx="1609" dy="741" grid="0" gridSize="10" guides="1" tooltips="1" connect="1" arrows="1" fold="1" page="0" pageScale="1" pageWidth="827" pageHeight="1169" math="0" shadow="0">
      <root>
        <mxCell id="0" />
        <mxCell id="1" parent="0" />
        <mxCell id="HeziqRtYqpB88rKFsNOd-1" value="AutoEncoder-Ensemble-Finetune" style="swimlane;fontSize=16;" vertex="1" parent="1">
          <mxGeometry x="-32" y="93" width="784" height="476" as="geometry" />
        </mxCell>
        <mxCell id="HeziqRtYqpB88rKFsNOd-2" style="rounded=0;orthogonalLoop=1;jettySize=auto;html=1;exitX=0.5;exitY=1;exitDx=0;exitDy=0;entryX=0.5;entryY=0;entryDx=0;entryDy=0;fontSize=16;" edge="1" parent="HeziqRtYqpB88rKFsNOd-1" source="HeziqRtYqpB88rKFsNOd-7" target="HeziqRtYqpB88rKFsNOd-9">
          <mxGeometry relative="1" as="geometry" />
        </mxCell>
        <mxCell id="HeziqRtYqpB88rKFsNOd-34" style="rounded=0;orthogonalLoop=1;jettySize=auto;html=1;exitX=0.5;exitY=1;exitDx=0;exitDy=0;entryX=0.5;entryY=0;entryDx=0;entryDy=0;" edge="1" parent="HeziqRtYqpB88rKFsNOd-1" source="HeziqRtYqpB88rKFsNOd-7" target="HeziqRtYqpB88rKFsNOd-13">
          <mxGeometry relative="1" as="geometry" />
        </mxCell>
        <mxCell id="HeziqRtYqpB88rKFsNOd-35" style="edgeStyle=none;rounded=0;orthogonalLoop=1;jettySize=auto;html=1;exitX=0.5;exitY=1;exitDx=0;exitDy=0;entryX=0.5;entryY=0;entryDx=0;entryDy=0;" edge="1" parent="HeziqRtYqpB88rKFsNOd-1" source="HeziqRtYqpB88rKFsNOd-7" target="HeziqRtYqpB88rKFsNOd-17">
          <mxGeometry relative="1" as="geometry" />
        </mxCell>
        <mxCell id="HeziqRtYqpB88rKFsNOd-36" style="edgeStyle=none;rounded=0;orthogonalLoop=1;jettySize=auto;html=1;exitX=0.5;exitY=1;exitDx=0;exitDy=0;entryX=0.5;entryY=0;entryDx=0;entryDy=0;" edge="1" parent="HeziqRtYqpB88rKFsNOd-1" source="HeziqRtYqpB88rKFsNOd-7" target="HeziqRtYqpB88rKFsNOd-21">
          <mxGeometry relative="1" as="geometry" />
        </mxCell>
        <mxCell id="HeziqRtYqpB88rKFsNOd-7" value="&lt;font style=&quot;font-size: 18px;&quot;&gt;Encoder-1&lt;/font&gt;" style="rounded=0;whiteSpace=wrap;html=1;" vertex="1" parent="HeziqRtYqpB88rKFsNOd-1">
          <mxGeometry x="328" y="127" width="120" height="60" as="geometry" />
        </mxCell>
        <mxCell id="HeziqRtYqpB88rKFsNOd-37" style="edgeStyle=none;rounded=0;orthogonalLoop=1;jettySize=auto;html=1;exitX=0.5;exitY=1;exitDx=0;exitDy=0;entryX=0.5;entryY=0;entryDx=0;entryDy=0;" edge="1" parent="HeziqRtYqpB88rKFsNOd-1" source="HeziqRtYqpB88rKFsNOd-9" target="HeziqRtYqpB88rKFsNOd-28">
          <mxGeometry relative="1" as="geometry" />
        </mxCell>
        <mxCell id="HeziqRtYqpB88rKFsNOd-9" value="&lt;font style=&quot;font-size: 18px;&quot;&gt;Decoder-1&lt;br&gt;(freezed)&lt;br&gt;&lt;/font&gt;" style="rounded=0;whiteSpace=wrap;html=1;fillColor=#dae8fc;strokeColor=#6c8ebf;" vertex="1" parent="HeziqRtYqpB88rKFsNOd-1">
          <mxGeometry x="28" y="251" width="120" height="60" as="geometry" />
        </mxCell>
        <mxCell id="HeziqRtYqpB88rKFsNOd-41" style="edgeStyle=none;rounded=0;orthogonalLoop=1;jettySize=auto;html=1;exitX=0.5;exitY=1;exitDx=0;exitDy=0;entryX=0.5;entryY=0;entryDx=0;entryDy=0;" edge="1" parent="HeziqRtYqpB88rKFsNOd-1" source="HeziqRtYqpB88rKFsNOd-13" target="HeziqRtYqpB88rKFsNOd-28">
          <mxGeometry relative="1" as="geometry" />
        </mxCell>
        <mxCell id="HeziqRtYqpB88rKFsNOd-13" value="&lt;font style=&quot;font-size: 18px;&quot;&gt;Decoder-2&lt;br&gt;(freezed)&lt;br&gt;&lt;/font&gt;" style="rounded=0;whiteSpace=wrap;html=1;fillColor=#dae8fc;strokeColor=#6c8ebf;" vertex="1" parent="HeziqRtYqpB88rKFsNOd-1">
          <mxGeometry x="213" y="251" width="120" height="60" as="geometry" />
        </mxCell>
        <mxCell id="HeziqRtYqpB88rKFsNOd-43" style="edgeStyle=none;rounded=0;orthogonalLoop=1;jettySize=auto;html=1;exitX=0.5;exitY=1;exitDx=0;exitDy=0;entryX=0.5;entryY=0;entryDx=0;entryDy=0;" edge="1" parent="HeziqRtYqpB88rKFsNOd-1" source="HeziqRtYqpB88rKFsNOd-17" target="HeziqRtYqpB88rKFsNOd-28">
          <mxGeometry relative="1" as="geometry" />
        </mxCell>
        <mxCell id="HeziqRtYqpB88rKFsNOd-17" value="&lt;font style=&quot;font-size: 18px;&quot;&gt;Decoder-3&lt;br&gt;(freezed)&lt;br&gt;&lt;/font&gt;" style="rounded=0;whiteSpace=wrap;html=1;fillColor=#dae8fc;strokeColor=#6c8ebf;" vertex="1" parent="HeziqRtYqpB88rKFsNOd-1">
          <mxGeometry x="377" y="253" width="120" height="60" as="geometry" />
        </mxCell>
        <mxCell id="HeziqRtYqpB88rKFsNOd-46" style="edgeStyle=none;rounded=0;orthogonalLoop=1;jettySize=auto;html=1;exitX=0.5;exitY=1;exitDx=0;exitDy=0;entryX=0.5;entryY=0;entryDx=0;entryDy=0;" edge="1" parent="HeziqRtYqpB88rKFsNOd-1" source="HeziqRtYqpB88rKFsNOd-21" target="HeziqRtYqpB88rKFsNOd-28">
          <mxGeometry relative="1" as="geometry" />
        </mxCell>
        <mxCell id="HeziqRtYqpB88rKFsNOd-21" value="&lt;font style=&quot;font-size: 18px;&quot;&gt;Decoder-N&lt;/font&gt;" style="rounded=0;whiteSpace=wrap;html=1;fillColor=#dae8fc;strokeColor=#6c8ebf;" vertex="1" parent="HeziqRtYqpB88rKFsNOd-1">
          <mxGeometry x="631" y="253" width="120" height="60" as="geometry" />
        </mxCell>
        <mxCell id="HeziqRtYqpB88rKFsNOd-23" value="······" style="text;html=1;align=center;verticalAlign=middle;resizable=0;points=[];autosize=1;strokeColor=none;fillColor=none;fontSize=16;" vertex="1" parent="HeziqRtYqpB88rKFsNOd-1">
          <mxGeometry x="543" y="267.5" width="50" height="31" as="geometry" />
        </mxCell>
        <mxCell id="HeziqRtYqpB88rKFsNOd-45" style="edgeStyle=none;rounded=0;orthogonalLoop=1;jettySize=auto;html=1;exitX=0.5;exitY=1;exitDx=0;exitDy=0;entryX=0.5;entryY=0;entryDx=0;entryDy=0;" edge="1" parent="HeziqRtYqpB88rKFsNOd-1" source="HeziqRtYqpB88rKFsNOd-28" target="HeziqRtYqpB88rKFsNOd-29">
          <mxGeometry relative="1" as="geometry" />
        </mxCell>
        <mxCell id="HeziqRtYqpB88rKFsNOd-28" value="ElementwiseMean" style="ellipse;whiteSpace=wrap;html=1;fontSize=16;fillColor=#fff2cc;strokeColor=#d6b656;" vertex="1" parent="HeziqRtYqpB88rKFsNOd-1">
          <mxGeometry x="309.5" y="351" width="173" height="49" as="geometry" />
        </mxCell>
        <mxCell id="HeziqRtYqpB88rKFsNOd-29" value="Output" style="rounded=1;whiteSpace=wrap;html=1;fontSize=16;" vertex="1" parent="HeziqRtYqpB88rKFsNOd-1">
          <mxGeometry x="350" y="423" width="92" height="29" as="geometry" />
        </mxCell>
        <mxCell id="HeziqRtYqpB88rKFsNOd-30" value="" style="endArrow=classic;html=1;rounded=0;fontSize=16;" edge="1" parent="HeziqRtYqpB88rKFsNOd-1">
          <mxGeometry width="50" height="50" relative="1" as="geometry">
            <mxPoint x="596" y="436" as="sourcePoint" />
            <mxPoint x="638" y="436" as="targetPoint" />
          </mxGeometry>
        </mxCell>
        <mxCell id="HeziqRtYqpB88rKFsNOd-32" value="training flow" style="text;html=1;align=center;verticalAlign=middle;resizable=0;points=[];autosize=1;strokeColor=none;fillColor=none;fontSize=16;" vertex="1" parent="HeziqRtYqpB88rKFsNOd-1">
          <mxGeometry x="651" y="419" width="104" height="31" as="geometry" />
        </mxCell>
        <mxCell id="HeziqRtYqpB88rKFsNOd-40" style="edgeStyle=none;rounded=0;orthogonalLoop=1;jettySize=auto;html=1;exitX=0.5;exitY=1;exitDx=0;exitDy=0;entryX=0.5;entryY=0;entryDx=0;entryDy=0;" edge="1" parent="HeziqRtYqpB88rKFsNOd-1" source="HeziqRtYqpB88rKFsNOd-39" target="HeziqRtYqpB88rKFsNOd-7">
          <mxGeometry relative="1" as="geometry" />
        </mxCell>
        <mxCell id="HeziqRtYqpB88rKFsNOd-39" value="&lt;font style=&quot;font-size: 18px;&quot;&gt;online-data&lt;/font&gt;" style="rounded=0;whiteSpace=wrap;html=1;" vertex="1" parent="HeziqRtYqpB88rKFsNOd-1">
          <mxGeometry x="328" y="46" width="120" height="60" as="geometry" />
        </mxCell>
      </root>
    </mxGraphModel>
  </diagram>
</mxfile>
